<mxfile host="app.diagrams.net" agent="Mozilla/5.0 (Macintosh; Intel Mac OS X 10_15_7) AppleWebKit/537.36 (KHTML, like Gecko) Chrome/126.0.0.0 Safari/537.36" version="24.7.17">
  <diagram name="Disk-Backed Queue System" id="-O2IQ0A12SzPowNVlZzv">
    <mxGraphModel dx="1266" dy="669" grid="1" gridSize="10" guides="1" tooltips="1" connect="1" arrows="1" fold="1" page="1" pageScale="1" pageWidth="1100" pageHeight="850" math="0" shadow="0">
      <root>
        <mxCell id="0" />
        <mxCell id="1" parent="0" />
        <mxCell id="9-qPsSj8fZu835_Rr5Yz-1" value="Producer App" style="rounded=1;whiteSpace=wrap;html=1;fillColor=#d5e8d4;strokeColor=#82b366;" vertex="1" parent="1">
          <mxGeometry x="190" y="190" width="120" height="60" as="geometry" />
        </mxCell>
        <mxCell id="9-qPsSj8fZu835_Rr5Yz-2" value="QueueProducer" style="rounded=1;whiteSpace=wrap;html=1;fillColor=#dae8fc;strokeColor=#6c8ebf;" vertex="1" parent="1">
          <mxGeometry x="350" y="190" width="120" height="60" as="geometry" />
        </mxCell>
        <mxCell id="9-qPsSj8fZu835_Rr5Yz-3" value="DiskLogger" style="rounded=1;whiteSpace=wrap;html=1;fillColor=#f8cecc;strokeColor=#b85450;" vertex="1" parent="1">
          <mxGeometry x="510" y="190" width="120" height="60" as="geometry" />
        </mxCell>
        <mxCell id="9-qPsSj8fZu835_Rr5Yz-4" value="Log Files (app-0.log, app-1.log...)" style="shape=document;whiteSpace=wrap;html=1;fillColor=#fff2cc;strokeColor=#d6b656;" vertex="1" parent="1">
          <mxGeometry x="670" y="190" width="200" height="80" as="geometry" />
        </mxCell>
        <mxCell id="9-qPsSj8fZu835_Rr5Yz-5" value="LogProcessor (Reader)" style="rounded=1;whiteSpace=wrap;html=1;fillColor=#e1d5e7;strokeColor=#9673a6;" vertex="1" parent="1">
          <mxGeometry x="570" y="350" width="160" height="60" as="geometry" />
        </mxCell>
        <mxCell id="9-qPsSj8fZu835_Rr5Yz-6" value="QueueConsumer" style="rounded=1;whiteSpace=wrap;html=1;fillColor=#ffe6cc;strokeColor=#d79b00;" vertex="1" parent="1">
          <mxGeometry x="370" y="350" width="140" height="60" as="geometry" />
        </mxCell>
        <mxCell id="9-qPsSj8fZu835_Rr5Yz-7" value="Processed Output" style="rounded=1;whiteSpace=wrap;html=1;fillColor=#f5f5f5;strokeColor=#666666;" vertex="1" parent="1">
          <mxGeometry x="190" y="350" width="100" height="60" as="geometry" />
        </mxCell>
        <mxCell id="9-qPsSj8fZu835_Rr5Yz-8" style="endArrow=block;html=1;strokeColor=#000000;" edge="1" parent="1" source="9-qPsSj8fZu835_Rr5Yz-1" target="9-qPsSj8fZu835_Rr5Yz-2">
          <mxGeometry relative="1" as="geometry" />
        </mxCell>
        <mxCell id="9-qPsSj8fZu835_Rr5Yz-9" style="endArrow=block;html=1;strokeColor=#000000;" edge="1" parent="1" source="9-qPsSj8fZu835_Rr5Yz-2" target="9-qPsSj8fZu835_Rr5Yz-3">
          <mxGeometry relative="1" as="geometry" />
        </mxCell>
        <mxCell id="9-qPsSj8fZu835_Rr5Yz-10" style="endArrow=block;html=1;strokeColor=#000000;" edge="1" parent="1" source="9-qPsSj8fZu835_Rr5Yz-3" target="9-qPsSj8fZu835_Rr5Yz-4">
          <mxGeometry relative="1" as="geometry" />
        </mxCell>
        <mxCell id="9-qPsSj8fZu835_Rr5Yz-11" style="endArrow=block;html=1;strokeColor=#000000;" edge="1" parent="1" source="9-qPsSj8fZu835_Rr5Yz-4" target="9-qPsSj8fZu835_Rr5Yz-5">
          <mxGeometry relative="1" as="geometry" />
        </mxCell>
        <mxCell id="9-qPsSj8fZu835_Rr5Yz-12" style="endArrow=block;html=1;strokeColor=#000000;" edge="1" parent="1" source="9-qPsSj8fZu835_Rr5Yz-5" target="9-qPsSj8fZu835_Rr5Yz-6">
          <mxGeometry relative="1" as="geometry" />
        </mxCell>
        <mxCell id="9-qPsSj8fZu835_Rr5Yz-13" style="endArrow=block;html=1;strokeColor=#000000;" edge="1" parent="1" source="9-qPsSj8fZu835_Rr5Yz-6" target="9-qPsSj8fZu835_Rr5Yz-7">
          <mxGeometry relative="1" as="geometry" />
        </mxCell>
      </root>
    </mxGraphModel>
  </diagram>
</mxfile>
